<svg width="1080" height="1080" viewBox="0 0 1080 1080" fill="none" xmlns="http://www.w3.org/2000/svg">
<path d="M698.442 850.961C646.518 877.418 588.794 890.452 530.539 888.872C472.284 887.292 415.352 871.15 364.938 841.918C314.523 812.686 272.231 771.294 241.92 721.521C211.61 671.747 194.246 615.176 191.412 556.968C188.579 498.761 200.367 440.77 225.7 388.288C251.033 335.806 289.105 290.503 336.442 256.512C383.779 222.522 438.874 200.927 496.701 193.696C554.527 186.466 613.243 193.832 667.492 215.12" stroke="white" stroke-width="178"/>
<path d="M630.16 202.847C704.523 222.733 770.226 266.646 817.041 327.751C863.855 388.857 889.154 463.725 888.999 540.701C888.845 617.678 863.245 692.444 816.185 753.36C769.126 814.277 703.247 857.926 628.804 877.513" stroke="#6CE5E8" stroke-width="178" stroke-linecap="round"/>
</svg>
