<svg width="3000" height="900" viewBox="0 0 3000 900" fill="none" xmlns="http://www.w3.org/2000/svg">
<g clip-path="url(#clip0_1_11)">
<path d="M781.634 297.891V591H868.165C912.446 591 943.321 569.164 960.79 525.492C970.337 501.523 975.11 472.984 975.11 439.875C975.11 394.172 967.899 359.133 953.478 334.758C939.259 310.18 910.821 297.891 868.165 297.891H781.634ZM884.009 219.891C911.837 220.297 934.993 223.547 953.478 229.641C984.962 240 1010.45 258.992 1029.95 286.617C1045.59 308.961 1056.26 333.133 1061.95 359.133C1067.63 385.133 1070.48 409.914 1070.48 433.477C1070.48 493.195 1058.49 543.773 1034.52 585.211C1002.02 641.07 951.853 669 884.009 669H690.532V219.891H884.009ZM1265.48 399.656C1245.37 399.656 1229.73 405.953 1218.56 418.547C1207.59 431.141 1200.68 448.203 1197.84 469.734H1332.81C1331.39 446.781 1324.38 429.414 1311.79 417.633C1299.4 405.648 1283.96 399.656 1265.48 399.656ZM1265.48 328.055C1293.1 328.055 1317.99 333.234 1340.13 343.594C1362.27 353.953 1380.55 370.305 1394.97 392.648C1407.97 412.352 1416.4 435.203 1420.26 461.203C1422.49 476.438 1423.41 498.375 1423 527.016H1195.7C1196.92 560.328 1207.38 583.688 1227.09 597.094C1239.07 605.422 1253.49 609.586 1270.35 609.586C1288.23 609.586 1302.75 604.508 1313.92 594.352C1320.02 588.867 1325.4 581.25 1330.07 571.5H1418.74C1416.5 591.203 1406.24 611.211 1387.96 631.523C1359.52 663.82 1319.71 679.969 1268.52 679.969C1226.27 679.969 1189 666.359 1156.7 639.141C1124.41 611.922 1108.26 567.641 1108.26 506.297C1108.26 448.812 1122.78 404.734 1151.83 374.062C1181.08 343.391 1218.96 328.055 1265.48 328.055ZM1488.81 220.5H1807.21V299.414H1582.05V402.703H1779.18V480.703H1582.05V669H1488.81V220.5ZM1949.81 336.891V537.07C1949.81 555.961 1952.04 570.18 1956.51 579.727C1964.43 596.586 1979.97 605.016 2003.13 605.016C2032.78 605.016 2053.09 593.031 2064.06 569.062C2069.75 556.062 2072.59 538.898 2072.59 517.57V336.891H2160.65V669H2076.25V622.078C2075.44 623.094 2073.41 626.141 2070.16 631.219C2066.91 636.297 2063.05 640.766 2058.58 644.625C2044.97 656.812 2031.77 665.141 2018.97 669.609C2006.38 674.078 1991.55 676.312 1974.49 676.312C1925.33 676.312 1892.22 658.641 1875.16 623.297C1865.61 603.797 1860.84 575.055 1860.84 537.07V336.891H1949.81ZM2428.77 328.969C2463.1 328.969 2491.13 338.008 2512.87 356.086C2534.81 373.961 2545.77 403.719 2545.77 445.359V669H2456.81V466.992C2456.81 449.523 2454.47 436.117 2449.8 426.773C2441.27 409.711 2425.02 401.18 2401.05 401.18C2371.59 401.18 2351.38 413.672 2340.42 438.656C2334.73 451.859 2331.88 468.719 2331.88 489.234V669H2245.35V337.5H2329.14V385.945C2340.31 368.883 2350.88 356.594 2360.83 349.078C2378.7 335.672 2401.35 328.969 2428.77 328.969ZM2748.7 328.969C2768.81 328.969 2786.68 333.438 2802.32 342.375C2817.96 351.109 2830.66 363.297 2840.41 378.938V220.5H2928.46V669H2844.06V622.992C2831.67 642.695 2817.56 657.016 2801.71 665.953C2785.87 674.891 2766.17 679.359 2742.6 679.359C2703.81 679.359 2671.1 663.719 2644.49 632.438C2618.09 600.953 2604.88 560.633 2604.88 511.477C2604.88 454.805 2617.88 410.219 2643.88 377.719C2670.09 345.219 2705.02 328.969 2748.7 328.969ZM2767.59 606.234C2792.17 606.234 2810.85 597.094 2823.65 578.812C2836.45 560.531 2842.84 536.867 2842.84 507.82C2842.84 467.195 2832.59 438.148 2812.07 420.68C2799.48 410.117 2784.85 404.836 2768.2 404.836C2742.81 404.836 2724.12 414.484 2712.13 433.781C2700.35 452.875 2694.46 476.641 2694.46 505.078C2694.46 535.75 2700.45 560.328 2712.44 578.812C2724.63 597.094 2743.01 606.234 2767.59 606.234Z" fill="black"/>
<path d="M386.27 653.73C353.714 660.948 319.954 660.773 287.475 653.218C254.996 645.663 224.624 630.921 198.596 610.077C172.567 589.233 151.544 562.817 137.074 532.774C122.604 502.731 115.055 469.826 114.984 436.479C114.912 403.133 122.319 370.196 136.66 340.091C151 309.986 171.91 283.48 197.848 262.524C223.787 241.568 254.095 226.695 286.541 219.001C318.988 211.307 352.746 210.987 385.333 218.064" stroke="black" stroke-width="110" stroke-linecap="round"/>
<path d="M395.615 220.554C443.134 233.261 485.119 261.323 515.035 300.37C544.95 339.417 561.116 387.259 561.017 436.448C560.918 485.638 544.56 533.414 514.488 572.341C484.416 611.267 442.319 639.16 394.748 651.676" stroke="#6CE5E8" stroke-width="110" stroke-linecap="round"/>
</g>
<defs>
<clipPath id="clip0_1_11">
<rect width="3000" height="900" fill="white"/>
</clipPath>
</defs>
</svg>
