<svg width="1080" height="1080" viewBox="0 0 1080 1080" fill="none" xmlns="http://www.w3.org/2000/svg">
<path d="M615.537 880.727C564.59 892.022 511.76 891.748 460.933 879.926C410.106 868.103 362.577 845.033 321.845 812.414C281.113 779.795 248.214 738.457 225.57 691.442C202.926 644.428 191.113 592.934 191 540.75C190.888 488.567 202.48 437.022 224.921 389.911C247.363 342.799 280.084 301.32 320.676 268.526C361.267 235.732 408.696 212.458 459.472 200.417C510.247 188.377 563.076 187.875 614.071 198.951" stroke="black" stroke-width="177" stroke-linecap="round"/>
<path d="M630.16 202.847C704.523 222.733 770.226 266.646 817.041 327.751C863.855 388.857 889.154 463.725 888.999 540.701C888.845 617.678 863.245 692.444 816.185 753.36C769.126 814.277 703.247 857.926 628.804 877.513" stroke="#6CE5E8" stroke-width="178" stroke-linecap="round"/>
</svg>
