<svg xmlns="http://www.w3.org/2000/svg" xmlns:xlink="http://www.w3.org/1999/xlink" width="500" zoomAndPan="magnify" viewBox="0 0 375 374.999991" height="500" preserveAspectRatio="xMidYMid meet" version="1.0"><path fill="rgb(0%, 0%, 0%)" d="M 187.5 80.710938 C 189.246094 80.710938 190.996094 80.753906 192.738281 80.839844 C 194.484375 80.925781 196.226562 81.054688 197.96875 81.226562 C 199.707031 81.398438 201.441406 81.613281 203.167969 81.867188 C 204.898438 82.125 206.621094 82.421875 208.332031 82.765625 C 210.046875 83.105469 211.753906 83.488281 213.449219 83.914062 C 215.144531 84.335938 216.828125 84.804688 218.5 85.308594 C 220.171875 85.816406 221.832031 86.367188 223.476562 86.953125 C 225.121094 87.542969 226.75 88.171875 228.367188 88.839844 C 229.980469 89.507812 231.578125 90.21875 233.15625 90.964844 C 234.738281 91.710938 236.296875 92.496094 237.839844 93.320312 C 239.378906 94.144531 240.902344 95.007812 242.398438 95.90625 C 243.898438 96.804688 245.375 97.738281 246.828125 98.710938 C 248.28125 99.679688 249.710938 100.6875 251.113281 101.726562 C 252.515625 102.769531 253.894531 103.84375 255.246094 104.953125 C 256.597656 106.058594 257.917969 107.203125 259.214844 108.375 C 260.507812 109.550781 261.773438 110.753906 263.011719 111.988281 C 264.246094 113.226562 265.449219 114.492188 266.625 115.785156 C 267.796875 117.082031 268.941406 118.402344 270.046875 119.753906 C 271.15625 121.105469 272.230469 122.484375 273.273438 123.886719 C 274.3125 125.289062 275.320312 126.71875 276.289062 128.171875 C 277.261719 129.625 278.195312 131.101562 279.09375 132.601562 C 279.992188 134.097656 280.855469 135.621094 281.679688 137.160156 C 282.503906 138.703125 283.289062 140.261719 284.035156 141.84375 C 284.78125 143.421875 285.492188 145.019531 286.160156 146.632812 C 286.828125 148.25 287.457031 149.878906 288.046875 151.523438 C 288.632812 153.167969 289.183594 154.828125 289.691406 156.5 C 290.195312 158.171875 290.664062 159.855469 291.085938 161.550781 C 291.511719 163.246094 291.894531 164.953125 292.234375 166.667969 C 292.578125 168.378906 292.875 170.101562 293.132812 171.832031 C 293.386719 173.558594 293.601562 175.292969 293.773438 177.03125 C 293.945312 178.773438 294.074219 180.515625 294.160156 182.261719 C 294.246094 184.003906 294.289062 185.753906 294.289062 187.5 C 294.289062 189.246094 294.246094 190.996094 294.160156 192.738281 C 294.074219 194.484375 293.945312 196.226562 293.773438 197.96875 C 293.601562 199.707031 293.386719 201.441406 293.132812 203.167969 C 292.875 204.898438 292.578125 206.621094 292.234375 208.332031 C 291.894531 210.046875 291.511719 211.753906 291.085938 213.449219 C 290.664062 215.144531 290.195312 216.828125 289.691406 218.5 C 289.183594 220.171875 288.632812 221.832031 288.046875 223.476562 C 287.457031 225.121094 286.828125 226.75 286.160156 228.367188 C 285.492188 229.980469 284.78125 231.578125 284.035156 233.15625 C 283.289062 234.738281 282.503906 236.296875 281.679688 237.839844 C 280.855469 239.378906 279.992188 240.902344 279.09375 242.398438 C 278.195312 243.898438 277.261719 245.375 276.289062 246.828125 C 275.320312 248.28125 274.3125 249.710938 273.273438 251.113281 C 272.230469 252.515625 271.15625 253.894531 270.046875 255.246094 C 268.941406 256.597656 267.796875 257.917969 266.625 259.214844 C 265.449219 260.507812 264.246094 261.773438 263.011719 263.011719 C 261.773438 264.246094 260.507812 265.449219 259.214844 266.625 C 257.917969 267.796875 256.597656 268.941406 255.246094 270.046875 C 253.894531 271.15625 252.515625 272.230469 251.113281 273.273438 C 249.710938 274.3125 248.28125 275.320312 246.828125 276.289062 C 245.375 277.261719 243.898438 278.195312 242.398438 279.09375 C 240.902344 279.992188 239.378906 280.855469 237.839844 281.679688 C 236.296875 282.503906 234.738281 283.289062 233.15625 284.035156 C 231.578125 284.78125 229.980469 285.492188 228.367188 286.160156 C 226.75 286.828125 225.121094 287.457031 223.476562 288.046875 C 221.832031 288.632812 220.171875 289.183594 218.5 289.691406 C 216.828125 290.195312 215.144531 290.664062 213.449219 291.085938 C 211.753906 291.511719 210.046875 291.894531 208.332031 292.234375 C 206.621094 292.578125 204.898438 292.875 203.167969 293.132812 C 201.441406 293.386719 199.707031 293.601562 197.96875 293.773438 C 196.226562 293.945312 194.484375 294.074219 192.738281 294.160156 C 190.996094 294.246094 189.246094 294.289062 187.5 294.289062 C 185.753906 294.289062 184.003906 294.246094 182.261719 294.160156 C 180.515625 294.074219 178.773438 293.945312 177.03125 293.773438 C 175.292969 293.601562 173.558594 293.386719 171.832031 293.132812 C 170.101562 292.875 168.378906 292.578125 166.667969 292.234375 C 164.953125 291.894531 163.246094 291.511719 161.550781 291.085938 C 159.855469 290.664062 158.171875 290.195312 156.5 289.691406 C 154.828125 289.183594 153.167969 288.632812 151.523438 288.046875 C 149.878906 287.457031 148.25 286.828125 146.632812 286.160156 C 145.019531 285.492188 143.421875 284.78125 141.84375 284.035156 C 140.261719 283.289062 138.703125 282.503906 137.160156 281.679688 C 135.621094 280.855469 134.097656 279.992188 132.601562 279.09375 C 131.101562 278.195312 129.625 277.261719 128.171875 276.289062 C 126.71875 275.320312 125.289062 274.3125 123.886719 273.273438 C 122.484375 272.230469 121.105469 271.15625 119.753906 270.046875 C 118.402344 268.941406 117.082031 267.796875 115.785156 266.625 C 114.492188 265.449219 113.226562 264.246094 111.988281 263.011719 C 110.753906 261.773438 109.550781 260.507812 108.375 259.214844 C 107.203125 257.917969 106.058594 256.597656 104.953125 255.246094 C 103.84375 253.894531 102.769531 252.515625 101.726562 251.113281 C 100.6875 249.710938 99.679688 248.28125 98.710938 246.828125 C 97.738281 245.375 96.804688 243.898438 95.90625 242.398438 C 95.007812 240.902344 94.144531 239.378906 93.320312 237.839844 C 92.496094 236.296875 91.710938 234.738281 90.964844 233.15625 C 90.21875 231.578125 89.507812 229.980469 88.839844 228.367188 C 88.171875 226.75 87.542969 225.121094 86.953125 223.476562 C 86.367188 221.832031 85.816406 220.171875 85.308594 218.5 C 84.804688 216.828125 84.335938 215.144531 83.914062 213.449219 C 83.488281 211.753906 83.105469 210.046875 82.765625 208.332031 C 82.421875 206.621094 82.125 204.898438 81.867188 203.167969 C 81.613281 201.441406 81.398438 199.707031 81.226562 197.96875 C 81.054688 196.226562 80.925781 194.484375 80.839844 192.738281 C 80.753906 190.996094 80.710938 189.246094 80.710938 187.5 C 80.710938 185.753906 80.753906 184.003906 80.839844 182.261719 C 80.925781 180.515625 81.054688 178.773438 81.226562 177.03125 C 81.398438 175.292969 81.613281 173.558594 81.867188 171.832031 C 82.125 170.101562 82.421875 168.378906 82.765625 166.667969 C 83.105469 164.953125 83.488281 163.246094 83.914062 161.550781 C 84.335938 159.855469 84.804688 158.171875 85.308594 156.5 C 85.816406 154.828125 86.367188 153.167969 86.953125 151.523438 C 87.542969 149.878906 88.171875 148.25 88.839844 146.632812 C 89.507812 145.019531 90.21875 143.421875 90.964844 141.84375 C 91.710938 140.261719 92.496094 138.703125 93.320312 137.160156 C 94.144531 135.621094 95.007812 134.097656 95.90625 132.601562 C 96.804688 131.101562 97.738281 129.625 98.710938 128.171875 C 99.679688 126.71875 100.6875 125.289062 101.726562 123.886719 C 102.769531 122.484375 103.84375 121.105469 104.953125 119.753906 C 106.058594 118.402344 107.203125 117.082031 108.375 115.785156 C 109.550781 114.492188 110.753906 113.226562 111.988281 111.988281 C 113.226562 110.753906 114.492188 109.550781 115.785156 108.375 C 117.082031 107.203125 118.402344 106.058594 119.753906 104.953125 C 121.105469 103.84375 122.484375 102.769531 123.886719 101.726562 C 125.289062 100.6875 126.71875 99.679688 128.171875 98.710938 C 129.625 97.738281 131.101562 96.804688 132.601562 95.90625 C 134.097656 95.007812 135.621094 94.144531 137.160156 93.320312 C 138.703125 92.496094 140.261719 91.710938 141.84375 90.964844 C 143.421875 90.21875 145.019531 89.507812 146.632812 88.839844 C 148.25 88.171875 149.878906 87.542969 151.523438 86.953125 C 153.167969 86.367188 154.828125 85.816406 156.5 85.308594 C 158.171875 84.804688 159.855469 84.335938 161.550781 83.914062 C 163.246094 83.488281 164.953125 83.105469 166.667969 82.765625 C 168.378906 82.421875 170.101562 82.125 171.832031 81.867188 C 173.558594 81.613281 175.292969 81.398438 177.03125 81.226562 C 178.773438 81.054688 180.515625 80.925781 182.261719 80.839844 C 184.003906 80.753906 185.753906 80.710938 187.5 80.710938 L 187.5 123.425781 C 186.453125 123.425781 185.402344 123.453125 184.355469 123.503906 C 183.308594 123.554688 182.261719 123.632812 181.21875 123.734375 C 180.175781 123.839844 179.136719 123.96875 178.097656 124.121094 C 177.0625 124.273438 176.027344 124.453125 175 124.660156 C 173.972656 124.863281 172.949219 125.09375 171.929688 125.347656 C 170.914062 125.601562 169.902344 125.882812 168.902344 126.1875 C 167.898438 126.492188 166.902344 126.820312 165.914062 127.171875 C 164.925781 127.527344 163.949219 127.902344 162.980469 128.304688 C 162.011719 128.707031 161.054688 129.128906 160.105469 129.578125 C 159.15625 130.027344 158.222656 130.5 157.296875 130.992188 C 156.371094 131.488281 155.460938 132.003906 154.558594 132.542969 C 153.660156 133.082031 152.773438 133.644531 151.902344 134.226562 C 151.03125 134.808594 150.175781 135.410156 149.332031 136.035156 C 148.488281 136.660156 147.664062 137.304688 146.851562 137.972656 C 146.042969 138.636719 145.25 139.320312 144.472656 140.023438 C 143.695312 140.730469 142.933594 141.453125 142.195312 142.195312 C 141.453125 142.933594 140.730469 143.695312 140.023438 144.472656 C 139.320312 145.25 138.636719 146.042969 137.972656 146.851562 C 137.304688 147.664062 136.660156 148.488281 136.035156 149.332031 C 135.410156 150.175781 134.808594 151.03125 134.226562 151.902344 C 133.644531 152.773438 133.082031 153.660156 132.542969 154.558594 C 132.003906 155.460938 131.488281 156.371094 130.992188 157.296875 C 130.5 158.222656 130.027344 159.15625 129.578125 160.105469 C 129.128906 161.054688 128.707031 162.011719 128.304688 162.980469 C 127.902344 163.949219 127.527344 164.925781 127.171875 165.914062 C 126.820312 166.902344 126.492188 167.898438 126.1875 168.902344 C 125.882812 169.902344 125.601562 170.914062 125.347656 171.929688 C 125.09375 172.949219 124.863281 173.972656 124.660156 175 C 124.453125 176.027344 124.273438 177.0625 124.121094 178.097656 C 123.96875 179.136719 123.839844 180.175781 123.734375 181.21875 C 123.632812 182.261719 123.554688 183.308594 123.503906 184.355469 C 123.453125 185.402344 123.425781 186.453125 123.425781 187.5 C 123.425781 188.546875 123.453125 189.597656 123.503906 190.644531 C 123.554688 191.691406 123.632812 192.738281 123.734375 193.78125 C 123.839844 194.824219 123.96875 195.863281 124.121094 196.902344 C 124.273438 197.9375 124.453125 198.972656 124.660156 200 C 124.863281 201.027344 125.09375 202.050781 125.347656 203.070312 C 125.601562 204.085938 125.882812 205.097656 126.1875 206.097656 C 126.492188 207.101562 126.820312 208.097656 127.171875 209.085938 C 127.527344 210.074219 127.902344 211.050781 128.304688 212.019531 C 128.707031 212.988281 129.128906 213.945312 129.578125 214.894531 C 130.027344 215.84375 130.5 216.777344 130.992188 217.703125 C 131.488281 218.628906 132.003906 219.539062 132.542969 220.441406 C 133.082031 221.339844 133.644531 222.226562 134.226562 223.097656 C 134.808594 223.96875 135.410156 224.824219 136.035156 225.667969 C 136.660156 226.511719 137.304688 227.335938 137.972656 228.148438 C 138.636719 228.957031 139.320312 229.75 140.023438 230.527344 C 140.730469 231.304688 141.453125 232.066406 142.195312 232.804688 C 142.933594 233.546875 143.695312 234.269531 144.472656 234.976562 C 145.25 235.679688 146.042969 236.363281 146.851562 237.027344 C 147.664062 237.695312 148.488281 238.339844 149.332031 238.964844 C 150.175781 239.589844 151.03125 240.191406 151.902344 240.773438 C 152.773438 241.355469 153.660156 241.917969 154.558594 242.457031 C 155.460938 242.996094 156.371094 243.511719 157.296875 244.007812 C 158.222656 244.5 159.15625 244.972656 160.105469 245.421875 C 161.054688 245.871094 162.011719 246.292969 162.980469 246.695312 C 163.949219 247.097656 164.925781 247.472656 165.914062 247.828125 C 166.902344 248.179688 167.898438 248.507812 168.902344 248.8125 C 169.902344 249.117188 170.914062 249.398438 171.929688 249.652344 C 172.949219 249.90625 173.972656 250.136719 175 250.339844 C 176.027344 250.546875 177.0625 250.726562 178.097656 250.878906 C 179.136719 251.03125 180.175781 251.160156 181.21875 251.265625 C 182.261719 251.367188 183.308594 251.445312 184.355469 251.496094 C 185.402344 251.546875 186.453125 251.574219 187.5 251.574219 C 188.546875 251.574219 189.597656 251.546875 190.644531 251.496094 C 191.691406 251.445312 192.738281 251.367188 193.78125 251.265625 C 194.824219 251.160156 195.863281 251.03125 196.902344 250.878906 C 197.9375 250.726562 198.972656 250.546875 200 250.339844 C 201.027344 250.136719 202.050781 249.90625 203.070312 249.652344 C 204.085938 249.398438 205.097656 249.117188 206.097656 248.8125 C 207.101562 248.507812 208.097656 248.179688 209.085938 247.828125 C 210.074219 247.472656 211.050781 247.097656 212.019531 246.695312 C 212.988281 246.292969 213.945312 245.871094 214.894531 245.421875 C 215.84375 244.972656 216.777344 244.5 217.703125 244.007812 C 218.628906 243.511719 219.539062 242.996094 220.441406 242.457031 C 221.339844 241.917969 222.226562 241.355469 223.097656 240.773438 C 223.96875 240.191406 224.824219 239.589844 225.667969 238.964844 C 226.511719 238.339844 227.335938 237.695312 228.148438 237.027344 C 228.957031 236.363281 229.75 235.679688 230.527344 234.976562 C 231.304688 234.269531 232.066406 233.546875 232.804688 232.804688 C 233.546875 232.066406 234.269531 231.304688 234.976562 230.527344 C 235.679688 229.75 236.363281 228.957031 237.027344 228.148438 C 237.695312 227.335938 238.339844 226.511719 238.964844 225.667969 C 239.589844 224.824219 240.191406 223.96875 240.773438 223.097656 C 241.355469 222.226562 241.917969 221.339844 242.457031 220.441406 C 242.996094 219.539062 243.511719 218.628906 244.007812 217.703125 C 244.5 216.777344 244.972656 215.84375 245.421875 214.894531 C 245.871094 213.945312 246.292969 212.988281 246.695312 212.019531 C 247.097656 211.050781 247.472656 210.074219 247.828125 209.085938 C 248.179688 208.097656 248.507812 207.101562 248.8125 206.097656 C 249.117188 205.097656 249.398438 204.085938 249.652344 203.070312 C 249.90625 202.050781 250.136719 201.027344 250.339844 200 C 250.546875 198.972656 250.726562 197.9375 250.878906 196.902344 C 251.03125 195.863281 251.160156 194.824219 251.265625 193.78125 C 251.367188 192.738281 251.445312 191.691406 251.496094 190.644531 C 251.546875 189.597656 251.574219 188.546875 251.574219 187.5 C 251.574219 186.453125 251.546875 185.402344 251.496094 184.355469 C 251.445312 183.308594 251.367188 182.261719 251.265625 181.21875 C 251.160156 180.175781 251.03125 179.136719 250.878906 178.097656 C 250.726562 177.0625 250.546875 176.027344 250.339844 175 C 250.136719 173.972656 249.90625 172.949219 249.652344 171.929688 C 249.398438 170.914062 249.117188 169.902344 248.8125 168.902344 C 248.507812 167.898438 248.179688 166.902344 247.828125 165.914062 C 247.472656 164.925781 247.097656 163.949219 246.695312 162.980469 C 246.292969 162.011719 245.871094 161.054688 245.421875 160.105469 C 244.972656 159.15625 244.5 158.222656 244.007812 157.296875 C 243.511719 156.371094 242.996094 155.460938 242.457031 154.558594 C 241.917969 153.660156 241.355469 152.773438 240.773438 151.902344 C 240.191406 151.03125 239.589844 150.175781 238.964844 149.332031 C 238.339844 148.488281 237.695312 147.664062 237.027344 146.851562 C 236.363281 146.042969 235.679688 145.25 234.976562 144.472656 C 234.269531 143.695312 233.546875 142.933594 232.804688 142.195312 C 232.066406 141.453125 231.304688 140.730469 230.527344 140.023438 C 229.75 139.320312 228.957031 138.636719 228.148438 137.972656 C 227.335938 137.304688 226.511719 136.660156 225.667969 136.035156 C 224.824219 135.410156 223.96875 134.808594 223.097656 134.226562 C 222.226562 133.644531 221.339844 133.082031 220.441406 132.542969 C 219.539062 132.003906 218.628906 131.488281 217.703125 130.992188 C 216.777344 130.5 215.84375 130.027344 214.894531 129.578125 C 213.945312 129.128906 212.988281 128.707031 212.019531 128.304688 C 211.050781 127.902344 210.074219 127.527344 209.085938 127.171875 C 208.097656 126.820312 207.101562 126.492188 206.097656 126.1875 C 205.097656 125.882812 204.085938 125.601562 203.070312 125.347656 C 202.050781 125.09375 201.027344 124.863281 200 124.660156 C 198.972656 124.453125 197.9375 124.273438 196.902344 124.121094 C 195.863281 123.96875 194.824219 123.839844 193.78125 123.734375 C 192.738281 123.632812 191.691406 123.554688 190.644531 123.503906 C 189.597656 123.453125 188.546875 123.425781 187.5 123.425781 Z M 187.5 80.710938 " fill-opacity="1" fill-rule="nonzero"/><path fill="rgb(42.349243%, 89.7995%, 90.979004%)" d="M 214.195312 84.101562 C 217.039062 84.835938 219.84375 85.6875 222.613281 86.652344 C 225.386719 87.617188 228.113281 88.691406 230.792969 89.882812 C 233.476562 91.070312 236.105469 92.371094 238.679688 93.777344 C 241.253906 95.183594 243.769531 96.691406 246.21875 98.304688 C 248.671875 99.917969 251.050781 101.628906 253.359375 103.441406 C 255.667969 105.25 257.902344 107.152344 260.054688 109.144531 C 262.207031 111.136719 264.273438 113.214844 266.253906 115.378906 C 268.238281 117.542969 270.125 119.785156 271.921875 122.105469 C 273.71875 124.425781 275.417969 126.816406 277.019531 129.273438 C 278.617188 131.734375 280.113281 134.253906 281.507812 136.839844 C 282.898438 139.421875 284.179688 142.058594 285.355469 144.746094 C 286.53125 147.433594 287.59375 150.167969 288.542969 152.945312 C 289.492188 155.71875 290.324219 158.53125 291.042969 161.375 C 291.761719 164.21875 292.359375 167.089844 292.839844 169.984375 C 293.324219 172.878906 293.683594 175.789062 293.925781 178.710938 C 294.167969 181.636719 294.289062 184.566406 294.289062 187.5 C 294.289062 190.433594 294.167969 193.363281 293.925781 196.289062 C 293.683594 199.210938 293.324219 202.121094 292.839844 205.015625 C 292.359375 207.910156 291.761719 210.78125 291.042969 213.625 C 290.324219 216.46875 289.492188 219.28125 288.542969 222.054688 C 287.59375 224.832031 286.53125 227.566406 285.355469 230.253906 C 284.179688 232.941406 282.898438 235.578125 281.507812 238.160156 C 280.113281 240.746094 278.617188 243.265625 277.019531 245.726562 C 275.417969 248.183594 273.71875 250.574219 271.921875 252.894531 C 270.125 255.214844 268.238281 257.457031 266.253906 259.621094 C 264.273438 261.785156 262.207031 263.863281 260.054688 265.855469 C 257.902344 267.847656 255.667969 269.75 253.359375 271.558594 C 251.050781 273.371094 248.671875 275.082031 246.21875 276.695312 C 243.769531 278.308594 241.253906 279.816406 238.679688 281.222656 C 236.105469 282.628906 233.476562 283.929688 230.792969 285.117188 C 228.113281 286.308594 225.386719 287.382812 222.613281 288.347656 C 219.84375 289.3125 217.039062 290.164062 214.195312 290.898438 C 213.519531 291.070312 212.835938 291.214844 212.144531 291.320312 C 211.453125 291.429688 210.757812 291.503906 210.058594 291.542969 C 209.359375 291.582031 208.660156 291.589844 207.960938 291.558594 C 207.261719 291.53125 206.566406 291.46875 205.875 291.371094 C 205.179688 291.273438 204.496094 291.140625 203.816406 290.976562 C 203.136719 290.8125 202.464844 290.613281 201.804688 290.382812 C 201.144531 290.152344 200.496094 289.890625 199.863281 289.59375 C 199.226562 289.300781 198.609375 288.976562 198.003906 288.621094 C 197.402344 288.265625 196.816406 287.882812 196.253906 287.46875 C 195.6875 287.054688 195.144531 286.617188 194.621094 286.152344 C 194.101562 285.683594 193.601562 285.195312 193.128906 284.679688 C 192.65625 284.164062 192.207031 283.628906 191.785156 283.070312 C 191.367188 282.511719 190.972656 281.933594 190.609375 281.335938 C 190.246094 280.738281 189.910156 280.121094 189.609375 279.492188 C 189.304688 278.863281 189.03125 278.21875 188.792969 277.5625 C 188.550781 276.90625 188.34375 276.238281 188.167969 275.558594 C 187.992188 274.882812 187.851562 274.199219 187.746094 273.507812 C 187.636719 272.816406 187.5625 272.121094 187.523438 271.421875 C 187.484375 270.722656 187.480469 270.023438 187.507812 269.324219 C 187.539062 268.625 187.601562 267.929688 187.699219 267.238281 C 187.796875 266.542969 187.929688 265.859375 188.09375 265.179688 C 188.257812 264.496094 188.457031 263.828125 188.6875 263.167969 C 188.917969 262.507812 189.183594 261.859375 189.476562 261.222656 C 189.769531 260.589844 190.097656 259.972656 190.453125 259.367188 C 190.808594 258.765625 191.191406 258.183594 191.605469 257.617188 C 192.015625 257.050781 192.457031 256.507812 192.921875 255.988281 C 193.390625 255.464844 193.878906 254.96875 194.394531 254.496094 C 194.910156 254.019531 195.449219 253.574219 196.007812 253.152344 C 196.566406 252.734375 197.144531 252.339844 197.742188 251.976562 C 198.339844 251.613281 198.953125 251.28125 199.585938 250.976562 C 200.214844 250.671875 200.859375 250.402344 201.515625 250.160156 C 202.171875 249.921875 202.839844 249.710938 203.519531 249.539062 C 205.222656 249.097656 206.90625 248.589844 208.570312 248.007812 C 210.230469 247.429688 211.867188 246.785156 213.476562 246.070312 C 215.085938 245.355469 216.664062 244.578125 218.207031 243.734375 C 219.753906 242.890625 221.261719 241.984375 222.730469 241.015625 C 224.203125 240.046875 225.628906 239.023438 227.015625 237.9375 C 228.402344 236.851562 229.742188 235.710938 231.03125 234.511719 C 232.324219 233.316406 233.566406 232.070312 234.753906 230.773438 C 235.941406 229.472656 237.074219 228.128906 238.152344 226.738281 C 239.230469 225.34375 240.25 223.910156 241.210938 222.433594 C 242.171875 220.960938 243.070312 219.445312 243.902344 217.898438 C 244.738281 216.347656 245.507812 214.765625 246.214844 213.152344 C 246.917969 211.539062 247.554688 209.898438 248.125 208.234375 C 248.695312 206.566406 249.195312 204.882812 249.625 203.175781 C 250.054688 201.46875 250.417969 199.746094 250.703125 198.007812 C 250.992188 196.273438 251.210938 194.527344 251.355469 192.773438 C 251.5 191.019531 251.574219 189.261719 251.574219 187.5 C 251.574219 185.738281 251.5 183.980469 251.355469 182.226562 C 251.210938 180.472656 250.992188 178.726562 250.703125 176.992188 C 250.417969 175.253906 250.054688 173.53125 249.625 171.824219 C 249.195312 170.117188 248.695312 168.433594 248.125 166.765625 C 247.554688 165.101562 246.917969 163.460938 246.214844 161.847656 C 245.507812 160.234375 244.738281 158.652344 243.902344 157.101562 C 243.070312 155.554688 242.171875 154.039062 241.210938 152.566406 C 240.25 151.089844 239.230469 149.65625 238.152344 148.261719 C 237.074219 146.871094 235.941406 145.527344 234.753906 144.226562 C 233.566406 142.929688 232.324219 141.683594 231.03125 140.488281 C 229.742188 139.289062 228.402344 138.148438 227.015625 137.0625 C 225.628906 135.976562 224.203125 134.953125 222.730469 133.984375 C 221.261719 133.015625 219.753906 132.109375 218.207031 131.265625 C 216.664062 130.421875 215.085938 129.644531 213.476562 128.929688 C 211.867188 128.214844 210.230469 127.570312 208.570312 126.992188 C 206.90625 126.410156 205.222656 125.902344 203.519531 125.460938 C 202.839844 125.285156 202.175781 125.078125 201.515625 124.839844 C 200.859375 124.597656 200.214844 124.328125 199.585938 124.023438 C 198.957031 123.71875 198.34375 123.386719 197.746094 123.019531 C 197.148438 122.65625 196.570312 122.265625 196.011719 121.84375 C 195.453125 121.421875 194.914062 120.976562 194.402344 120.503906 C 193.886719 120.03125 193.394531 119.53125 192.929688 119.011719 C 192.464844 118.488281 192.023438 117.945312 191.609375 117.378906 C 191.199219 116.816406 190.816406 116.230469 190.460938 115.628906 C 190.105469 115.027344 189.78125 114.410156 189.484375 113.773438 C 189.191406 113.140625 188.929688 112.492188 188.695312 111.832031 C 188.464844 111.171875 188.269531 110.5 188.101562 109.820312 C 187.9375 109.140625 187.804688 108.457031 187.710938 107.761719 C 187.613281 107.070312 187.546875 106.375 187.519531 105.675781 C 187.488281 104.976562 187.496094 104.277344 187.535156 103.578125 C 187.574219 102.882812 187.648438 102.1875 187.753906 101.496094 C 187.863281 100.804688 188.003906 100.121094 188.179688 99.441406 C 188.351562 98.765625 188.5625 98.097656 188.800781 97.441406 C 189.042969 96.785156 189.3125 96.140625 189.617188 95.511719 C 189.921875 94.882812 190.253906 94.265625 190.617188 93.671875 C 190.984375 93.074219 191.375 92.496094 191.796875 91.9375 C 192.214844 91.378906 192.664062 90.839844 193.136719 90.324219 C 193.609375 89.808594 194.109375 89.320312 194.628906 88.855469 C 195.152344 88.386719 195.695312 87.949219 196.257812 87.535156 C 196.824219 87.125 197.40625 86.738281 198.011719 86.382812 C 198.613281 86.027344 199.230469 85.703125 199.867188 85.410156 C 200.5 85.113281 201.148438 84.851562 201.808594 84.621094 C 202.46875 84.390625 203.136719 84.191406 203.816406 84.027344 C 204.5 83.863281 205.183594 83.730469 205.875 83.632812 C 206.570312 83.535156 207.265625 83.472656 207.964844 83.445312 C 208.664062 83.414062 209.363281 83.417969 210.058594 83.457031 C 210.757812 83.5 211.453125 83.570312 212.144531 83.679688 C 212.835938 83.785156 213.519531 83.929688 214.195312 84.101562 Z M 214.195312 84.101562 " fill-opacity="1" fill-rule="nonzero"/></svg>