<svg xmlns="http://www.w3.org/2000/svg" enable-background="new 0 0 512 512" viewBox="0 0 512 512"><path d="M494.103,6H447.1c-6.57-0.007-11.903,5.316-11.91,11.891c0,0.193,0.004,0.386,0.013,0.579l3.966,82.103c-46.668-55.029-115.173-86.716-187.298-86.637C116.384,13.937,5.901,124.581,6,260.157C6.099,395.95,116.146,506,251.871,506c60.883,0.086,119.617-22.517,164.753-63.403c4.896-4.385,5.313-11.911,0.931-16.81c-0.147-0.165-0.299-0.325-0.455-0.482l-33.708-33.73c-4.427-4.428-11.526-4.667-16.239-0.546c-72.351,63.697-182.606,56.643-246.262-15.756s-56.606-182.726,15.745-246.423s182.606-56.643,246.262,15.756c4.989,5.675,9.605,11.668,13.819,17.941l-100.658-4.831c-6.563-0.312-12.137,4.758-12.449,11.326c-0.009,0.193-0.014,0.386-0.013,0.579v47.034c0,6.575,5.326,11.905,11.897,11.905h198.61c6.571,0,11.897-5.33,11.897-11.905V17.905C506,11.33,500.674,6,494.103,6L494.103,6z"/></svg>